# xmcd CD database file
# Copyright (C) 1993-1998 Ti Kan
#
# Track frame offsets:
#	150
#	16770
#	27815
#	43530
#	54555
#	68940
#	83410
#	98632
#	114192
#	126990
#	140835
#	153260
#	168647
#	183405
#	198715
#	217085
#	232697
#	252847
#	270237
#	287890
#	309865
#
# Disc length: 4367 seconds
#
# Revision: 1
# Processed by: cddbd v1.4b41PL1 Copyright (c) Steve Scherf et al.
# Submitted via: NotifyCDPlayer(CDDB) 1.51.3
#
DISCID=1a110d15
DTITLE=Asleep at the Wheel - Still Swingin Volume 1
DYEAR=1900
DGENRE=
TTITLE0=Take Me Back to Tulsa
TTITLE1=I'm the Fool (Who told You to Go)
TTITLE2=Cherokee Boogie
TTITLE3=Your Down Home Is Uptown
TTITLE4=The Letter That Johnny Walker Read
TTITLE5=Bump Bounce Boogie
TTITLE6=Well, Oh Well
TTITLE7=Spanish Two Step
TTITLE8=(Get Your Kicks On) Route 66
TTITLE9=Miles and Miles of Texas
TTITLE10=Shout Wa Hey
TTITLE11=I Wonder
TTITLE12=A Dollar Short and a Day Late
TTITLE13=My Baby Thinks She's a Train
TTITLE14=Where Shall I Go (Song of the Wanderer)
TTITLE15=Texas Me and You
TTITLE16=One O'Clock Jump
TTITLE17=Louisiana
TTITLE18=The Last Meal
TTITLE19=God Bless the Child
TTITLE20=Am I High?
EXTD=
EXTT0=
EXTT1=
EXTT2=
EXTT3=
EXTT4=
EXTT5=
EXTT6=
EXTT7=
EXTT8=
EXTT9=
EXTT10=
EXTT11=
EXTT12=
EXTT13=
EXTT14=
EXTT15=
EXTT16=
EXTT17=
EXTT18=
EXTT19=
EXTT20=
PLAYORDER=
